<svg xmlns="http://www.w3.org/2000/svg" width="32" height="32" viewBox="0 0 32 32">
  <g id="Group_31" data-name="Group 31" transform="translate(-221 -641)">
    <rect id="Rectangle_24" data-name="Rectangle 24" width="32" height="32" transform="translate(221 641)" fill="#fff" opacity="0"/>
    <path id="logout_FILL0_wght200_GRAD0_opsz48" d="M15.724,19.389H28.165L24.906,16.13l.806-.771,4.556,4.591-4.521,4.521-.806-.771L28.2,20.441H15.724ZM19.509,8V9.086H10.327a.862.862,0,0,0-.6.263.782.782,0,0,0-.28.578V29.9a.782.782,0,0,0,.28.578.862.862,0,0,0,.6.263h9.182V31.83H10.327A1.915,1.915,0,0,1,8.4,29.9V9.927A1.915,1.915,0,0,1,10.327,8Z" transform="translate(217.6 637)"/>
  </g>
</svg>
